<?xml version="1.0" encoding="UTF-8" ?>
<!DOCTYPE svg PUBLIC "-//W3C//DTD SVG 1.1//EN" "http://www.w3.org/Graphics/SVG/1.1/DTD/svg11.dtd">
<svg width="2320pt" height="1566pt" viewBox="0 0 2320 1566" version="1.1" xmlns="http://www.w3.org/2000/svg">
<g id="#ffffffff">
<path fill="#ffffff" opacity="1.00" d=" M 0.00 0.00 L 2156.51 0.00 C 2122.95 1.81 2090.11 14.79 2064.57 36.65 C 2036.93 59.99 2017.84 93.25 2012.00 128.97 C 2005.29 167.99 2014.27 209.47 2036.82 242.06 C 2055.97 270.16 2084.58 291.71 2116.97 302.13 C 2153.76 314.11 2195.06 311.69 2230.09 295.21 C 2259.25 281.66 2283.96 258.77 2299.72 230.75 C 2317.15 200.18 2323.40 163.54 2317.49 128.89 C 2312.45 98.44 2297.89 69.68 2276.44 47.51 C 2249.69 19.33 2211.99 2.10 2173.21 0.00 L 2320.00 0.00 L 2320.00 1566.00 L 1628.82 1566.00 C 1771.21 1362.35 1913.65 1158.73 2055.97 955.02 C 1891.10 954.99 1726.22 954.97 1561.35 955.04 C 1523.75 1007.07 1485.97 1058.97 1448.34 1110.98 C 1556.65 1111.04 1664.97 1110.96 1773.28 1111.02 C 1708.61 1200.77 1643.88 1290.48 1579.23 1380.24 C 1577.98 1381.52 1577.31 1384.14 1575.18 1383.99 C 1551.46 1383.96 1527.69 1383.73 1504.06 1381.41 C 1459.40 1377.19 1415.13 1367.01 1373.81 1349.35 C 1303.41 1319.54 1243.11 1266.92 1203.37 1201.67 C 1196.40 1190.36 1190.23 1178.58 1184.37 1166.68 C 1100.71 1166.86 1017.05 1166.68 933.39 1166.77 C 957.22 1238.67 994.68 1306.24 1044.62 1363.31 C 1092.51 1418.63 1151.47 1464.31 1217.05 1496.78 C 1292.06 1534.32 1374.61 1555.64 1458.01 1562.98 C 1474.20 1564.51 1490.45 1565.24 1506.69 1566.00 L 0.00 1566.00 L 0.00 1551.25 C 331.67 1551.24 663.33 1551.25 995.00 1551.25 C 1068.58 1551.18 1142.16 1551.38 1215.75 1551.15 C 1179.60 1535.85 1144.45 1517.98 1111.66 1496.36 C 1065.91 1466.55 1024.61 1430.11 988.72 1389.01 C 788.10 1388.98 587.48 1389.02 386.86 1388.99 C 438.21 1312.62 489.66 1236.33 541.09 1160.01 C 506.90 1159.98 472.71 1160.01 438.53 1159.99 C 609.68 901.61 781.09 643.39 952.26 385.01 C 688.19 384.99 424.11 385.00 160.04 385.00 C 125.48 436.11 91.01 487.29 56.56 538.48 C 264.88 538.54 473.19 538.48 681.51 538.51 C 454.28 875.88 227.19 1213.35 0.00 1550.75 L 0.00 0.00 M 1244.72 50.67 C 1210.33 102.33 1176.30 154.23 1142.09 206.01 C 943.59 506.74 745.12 807.48 546.65 1108.23 C 817.38 1108.28 1088.11 1108.23 1358.84 1108.26 C 1397.01 1054.16 1435.40 1000.21 1473.43 946.02 C 1265.37 945.98 1057.31 946.01 849.24 946.00 C 1042.83 647.38 1236.31 348.69 1429.82 50.01 C 1395.56 49.85 1361.31 50.45 1327.04 50.25 C 1299.61 50.79 1272.15 50.27 1244.72 50.67 M 1466.43 361.61 C 1417.36 366.48 1368.63 375.42 1321.31 389.38 C 1303.82 394.78 1286.26 400.23 1269.38 407.28 C 1249.59 437.26 1230.06 467.42 1210.37 497.46 C 1122.61 631.81 1034.82 766.13 947.07 900.48 C 1014.67 900.56 1082.28 900.44 1149.89 900.54 C 1153.92 854.97 1163.02 809.45 1181.37 767.36 C 1197.16 731.22 1218.77 697.54 1245.55 668.56 C 1270.83 641.06 1300.35 617.49 1332.67 598.78 C 1367.72 578.42 1406.00 563.92 1445.36 554.45 C 1493.22 542.96 1542.64 538.77 1591.79 539.35 C 1684.13 540.73 1775.17 561.30 1862.36 590.76 C 1897.14 542.49 1932.10 494.34 1966.88 446.07 C 1901.85 416.92 1834.08 393.65 1764.43 378.40 C 1666.85 356.63 1565.83 351.92 1466.43 361.61 Z" />
<path fill="#ffffff" opacity="1.00" d=" M 2148.51 17.76 C 2183.51 13.40 2219.96 23.43 2247.96 44.84 C 2272.89 63.68 2291.18 91.17 2298.64 121.55 C 2306.78 153.69 2302.63 188.72 2287.24 218.08 C 2273.67 244.35 2251.42 266.04 2224.77 278.87 C 2190.32 295.92 2148.63 297.24 2113.09 282.64 C 2076.85 268.07 2047.46 237.42 2034.64 200.51 C 2020.60 161.67 2025.64 116.64 2047.75 81.79 C 2069.44 46.75 2107.51 22.37 2148.51 17.76 M 2093.49 246.97 C 2101.82 247.02 2110.17 247.01 2118.52 246.98 C 2118.48 220.90 2118.50 194.83 2118.51 168.76 C 2131.69 168.75 2144.87 168.75 2158.06 168.75 C 2167.41 168.93 2176.83 168.25 2186.15 169.47 C 2194.35 170.55 2202.67 174.74 2206.56 182.36 C 2211.15 190.48 2209.96 200.05 2210.52 208.97 C 2211.12 221.69 2211.68 234.48 2214.14 247.00 C 2224.42 247.00 2234.71 247.00 2245.00 247.00 C 2244.97 245.59 2244.97 244.19 2245.00 242.79 C 2239.85 240.81 2236.54 235.68 2236.30 230.26 C 2236.24 220.77 2235.28 211.31 2234.82 201.83 C 2233.96 191.97 2234.88 181.56 2230.46 172.38 C 2227.25 165.10 2220.46 159.97 2212.93 157.80 C 2220.62 153.55 2227.57 147.60 2231.96 139.89 C 2238.09 129.41 2239.15 116.72 2237.66 104.87 C 2236.54 95.44 2232.82 85.85 2225.36 79.65 C 2221.69 76.75 2217.60 74.41 2213.49 72.22 C 2202.17 66.85 2189.37 65.82 2177.01 65.74 C 2149.18 65.76 2121.34 65.74 2093.51 65.75 C 2093.47 126.16 2093.52 186.57 2093.49 246.97 Z" />
<path fill="#ffffff" opacity="1.00" d=" M 2118.50 85.76 C 2139.02 85.75 2159.54 85.74 2180.06 85.76 C 2188.60 85.94 2197.82 87.53 2204.25 93.63 C 2210.49 99.60 2212.31 108.65 2212.26 116.96 C 2212.10 124.94 2210.01 133.47 2204.03 139.12 C 2197.08 145.59 2187.23 147.67 2178.01 147.76 C 2158.18 147.75 2138.36 147.73 2118.54 147.77 C 2118.46 127.10 2118.52 106.43 2118.50 85.76 Z" />
</g>
<g id="#000000ff">
<path fill="#000000" opacity="1.00" d=" M 2156.51 0.00 L 2173.21 0.00 C 2211.99 2.10 2249.69 19.33 2276.44 47.51 C 2297.89 69.68 2312.45 98.44 2317.49 128.89 C 2323.40 163.54 2317.15 200.18 2299.72 230.75 C 2283.96 258.77 2259.25 281.66 2230.09 295.21 C 2195.06 311.69 2153.76 314.11 2116.97 302.13 C 2084.58 291.71 2055.97 270.16 2036.82 242.06 C 2014.27 209.47 2005.29 167.99 2012.00 128.97 C 2017.84 93.25 2036.93 59.99 2064.57 36.65 C 2090.11 14.79 2122.95 1.81 2156.51 0.00 M 2148.51 17.76 C 2107.51 22.37 2069.44 46.75 2047.75 81.79 C 2025.64 116.64 2020.60 161.67 2034.64 200.51 C 2047.46 237.42 2076.85 268.07 2113.09 282.64 C 2148.63 297.24 2190.32 295.92 2224.77 278.87 C 2251.42 266.04 2273.67 244.35 2287.24 218.08 C 2302.63 188.72 2306.78 153.69 2298.64 121.55 C 2291.18 91.17 2272.89 63.68 2247.96 44.84 C 2219.96 23.43 2183.51 13.40 2148.51 17.76 Z" />
<path fill="#000000" opacity="1.00" d=" M 2093.49 246.97 C 2093.52 186.57 2093.47 126.16 2093.51 65.75 C 2121.34 65.74 2149.18 65.76 2177.01 65.74 C 2189.37 65.82 2202.17 66.85 2213.49 72.22 C 2217.60 74.41 2221.69 76.75 2225.36 79.65 C 2232.82 85.85 2236.54 95.44 2237.66 104.87 C 2239.15 116.72 2238.09 129.41 2231.96 139.89 C 2227.57 147.60 2220.62 153.55 2212.93 157.80 C 2220.46 159.97 2227.25 165.10 2230.46 172.38 C 2234.88 181.56 2233.96 191.97 2234.82 201.83 C 2235.28 211.31 2236.24 220.77 2236.30 230.26 C 2236.54 235.68 2239.85 240.81 2245.00 242.79 C 2244.97 244.19 2244.97 245.59 2245.00 247.00 C 2234.71 247.00 2224.42 247.00 2214.14 247.00 C 2211.68 234.48 2211.12 221.69 2210.52 208.97 C 2209.96 200.05 2211.15 190.48 2206.56 182.36 C 2202.67 174.74 2194.35 170.55 2186.15 169.47 C 2176.83 168.25 2167.41 168.93 2158.06 168.75 C 2144.87 168.75 2131.69 168.75 2118.51 168.76 C 2118.50 194.83 2118.48 220.90 2118.52 246.98 C 2110.17 247.01 2101.82 247.02 2093.49 246.97 M 2118.50 85.76 C 2118.52 106.43 2118.46 127.10 2118.54 147.77 C 2138.36 147.73 2158.18 147.75 2178.01 147.76 C 2187.23 147.67 2197.08 145.59 2204.03 139.12 C 2210.01 133.47 2212.10 124.94 2212.26 116.96 C 2212.31 108.65 2210.49 99.60 2204.25 93.63 C 2197.82 87.53 2188.60 85.94 2180.06 85.76 C 2159.54 85.74 2139.02 85.75 2118.50 85.76 Z" />
</g>
<g id="#0066ffff">
<path fill="#0066ff" opacity="1.00" d=" M 1244.72 50.67 C 1272.15 50.27 1299.61 50.79 1327.04 50.25 C 1361.31 50.45 1395.56 49.85 1429.82 50.01 C 1236.31 348.69 1042.83 647.38 849.24 946.00 C 1057.31 946.01 1265.37 945.98 1473.43 946.02 C 1435.40 1000.21 1397.01 1054.16 1358.84 1108.26 C 1088.11 1108.23 817.38 1108.28 546.65 1108.23 C 745.12 807.48 943.59 506.74 1142.09 206.01 C 1176.30 154.23 1210.33 102.33 1244.72 50.67 Z" />
<path fill="#0066ff" opacity="1.00" d=" M 1466.43 361.61 C 1565.83 351.92 1666.85 356.63 1764.43 378.40 C 1834.08 393.65 1901.85 416.92 1966.88 446.07 C 1932.10 494.34 1897.14 542.49 1862.36 590.76 C 1775.17 561.30 1684.13 540.73 1591.79 539.35 C 1542.64 538.77 1493.22 542.96 1445.36 554.45 C 1406.00 563.92 1367.72 578.42 1332.67 598.78 C 1300.35 617.49 1270.83 641.06 1245.55 668.56 C 1218.77 697.54 1197.16 731.22 1181.37 767.36 C 1163.02 809.45 1153.92 854.97 1149.89 900.54 C 1082.28 900.44 1014.67 900.56 947.07 900.48 C 1034.82 766.13 1122.61 631.81 1210.37 497.46 C 1230.06 467.42 1249.59 437.26 1269.38 407.28 C 1286.26 400.23 1303.82 394.78 1321.31 389.38 C 1368.63 375.42 1417.36 366.48 1466.43 361.61 Z" />
<path fill="#0066ff" opacity="1.00" d=" M 160.04 385.00 C 424.11 385.00 688.19 384.99 952.26 385.01 C 781.09 643.39 609.68 901.61 438.53 1159.99 C 472.71 1160.01 506.90 1159.98 541.09 1160.01 C 489.66 1236.33 438.21 1312.62 386.86 1388.99 C 587.48 1389.02 788.10 1388.98 988.72 1389.01 C 1024.61 1430.11 1065.91 1466.55 1111.66 1496.36 C 1144.45 1517.98 1179.60 1535.85 1215.75 1551.15 C 1142.16 1551.38 1068.58 1551.18 995.00 1551.25 C 663.33 1551.25 331.67 1551.24 0.00 1551.25 L 0.00 1550.75 C 227.19 1213.35 454.28 875.88 681.51 538.51 C 473.19 538.48 264.88 538.54 56.56 538.48 C 91.01 487.29 125.48 436.11 160.04 385.00 Z" />
<path fill="#0066ff" opacity="1.00" d=" M 1561.35 955.04 C 1726.22 954.97 1891.10 954.99 2055.97 955.02 C 1913.65 1158.73 1771.21 1362.35 1628.82 1566.00 L 1506.69 1566.00 C 1490.45 1565.24 1474.20 1564.51 1458.01 1562.98 C 1374.61 1555.64 1292.06 1534.32 1217.05 1496.78 C 1151.47 1464.31 1092.51 1418.63 1044.62 1363.31 C 994.68 1306.24 957.22 1238.67 933.39 1166.77 C 1017.05 1166.68 1100.71 1166.86 1184.37 1166.68 C 1190.23 1178.58 1196.40 1190.36 1203.37 1201.67 C 1243.11 1266.92 1303.41 1319.54 1373.81 1349.35 C 1415.13 1367.01 1459.40 1377.19 1504.06 1381.41 C 1527.69 1383.73 1551.46 1383.96 1575.18 1383.99 C 1577.31 1384.14 1577.98 1381.52 1579.23 1380.24 C 1643.88 1290.48 1708.61 1200.77 1773.28 1111.02 C 1664.97 1110.96 1556.65 1111.04 1448.34 1110.98 C 1485.97 1058.97 1523.75 1007.07 1561.35 955.04 Z" />
</g>
</svg>
